# xmcd
#
# Track frame offsets: 
#        150
#        23195
#        50230
#        68530
#        93785
#        112742
#        133835
#        156585
#        173847
#        196915
#
# Disc length: 2934 seconds
#
# Revision: 0
# Processed by: cddbd v1.5.2PL0 Copyright (c) Steve Scherf et al.
# Submitted via: ExactAudioCopy v1.0b3
#
DISCID=820b740a
DTITLE=Huong Lan, Tuan Vu - Duyen Que
DYEAR=1994
DGENRE=
TTITLE0=Huong Lan - Duyen que
TTITLE1=Tuan Vu - Can nha mau tim
TTITLE2=Chuyen ba mua mua
TTITLE3=Tuan Vu - Ngau hung ly qua cau
TTITLE4=Huong Lan - Loi ve xom nho
TTITLE5=Tuan Vu - Ao em chua mac mot lan
TTITLE6=Huong Lan - Khung troi tuong nho
TTITLE7=Duoc tin em lay chong
TTITLE8=Huong Lan - Neu mot mai
TTITLE9=Tuan Vu - Nhat ky hai dua minh
EXTD=
EXTT0=
EXTT1=
EXTT2=
EXTT3=
EXTT4=
EXTT5=
EXTT6=
EXTT7=
EXTT8=
EXTT9=
PLAYORDER=
